<svg xmlns="http://www.w3.org/2000/svg" xmlns:xlink="http://www.w3.org/1999/xlink" width="193" zoomAndPan="magnify" viewBox="0 0 144.75 160.499995" height="214" preserveAspectRatio="xMidYMid meet" version="1.0"><defs><g/></defs><g fill="#d9d9d9" fill-opacity="1"><g transform="translate(18.64238, 57.919552)"><g><path d="M 4.46875 0 L 4.46875 -27.671875 L 0.40625 -27.671875 L 0.40625 -34.25 L 15.390625 -34.25 L 15.390625 -27.671875 L 11.328125 -27.671875 L 11.328125 0 Z M 4.46875 0 "/></g></g></g><g fill="#d9d9d9" fill-opacity="1"><g transform="translate(34.431619, 57.919552)"><g><path d="M 1.390625 -34.453125 L 8.578125 -34.453125 L 8.578125 -26.3125 C 9.316406 -28.4375 10.738281 -29.5 12.84375 -29.5 C 14.8125 -29.5 16.300781 -28.875 17.3125 -27.625 C 18.320312 -26.382812 18.828125 -24.671875 18.828125 -22.484375 L 18.828125 0 L 11.84375 0 L 11.84375 -22.046875 C 11.84375 -22.691406 11.695312 -23.210938 11.40625 -23.609375 C 11.113281 -24.003906 10.6875 -24.203125 10.125 -24.203125 C 9.644531 -24.203125 9.265625 -23.992188 8.984375 -23.578125 C 8.710938 -23.171875 8.578125 -22.675781 8.578125 -22.09375 L 8.578125 0 L 1.390625 0 Z M 1.390625 -34.453125 "/></g></g></g><g fill="#d9d9d9" fill-opacity="1"><g transform="translate(54.566889, 57.919552)"><g><path d="M 9.5625 0.3125 C 6.5625 0.3125 4.410156 -0.507812 3.109375 -2.15625 C 1.804688 -3.800781 1.15625 -6.257812 1.15625 -9.53125 L 1.15625 -21.25 C 1.15625 -23.9375 1.925781 -25.984375 3.46875 -27.390625 C 5.007812 -28.796875 7.160156 -29.5 9.921875 -29.5 C 15.535156 -29.5 18.34375 -26.75 18.34375 -21.25 L 18.34375 -19.140625 C 18.34375 -17.015625 18.316406 -15.285156 18.265625 -13.953125 L 8.140625 -13.953125 L 8.140625 -8.296875 C 8.140625 -7.285156 8.242188 -6.492188 8.453125 -5.921875 C 8.660156 -5.347656 9.113281 -5.0625 9.8125 -5.0625 C 10.34375 -5.0625 10.71875 -5.21875 10.9375 -5.53125 C 11.164062 -5.851562 11.300781 -6.21875 11.34375 -6.625 C 11.382812 -7.039062 11.40625 -7.648438 11.40625 -8.453125 L 11.40625 -11.28125 L 18.34375 -11.28125 L 18.34375 -9.609375 C 18.34375 -6.203125 17.679688 -3.695312 16.359375 -2.09375 C 15.046875 -0.488281 12.78125 0.3125 9.5625 0.3125 Z M 11.40625 -17.421875 L 11.40625 -21.171875 C 11.40625 -23.273438 10.882812 -24.328125 9.84375 -24.328125 C 8.675781 -24.328125 8.09375 -23.273438 8.09375 -21.171875 L 8.09375 -17.421875 Z M 11.40625 -17.421875 "/></g></g></g><g fill="#d9d9d9" fill-opacity="1"><g transform="translate(34.524266, 95.466401)"><g><path d="M 1.515625 0 L 1.515625 -34.25 L 8.578125 -34.25 L 11.71875 -17.859375 L 11.71875 -34.25 L 18.34375 -34.25 L 18.34375 0 L 11.640625 0 L 8.21875 -17.140625 L 8.21875 0 Z M 1.515625 0 "/></g></g></g><g fill="#d9d9d9" fill-opacity="1"><g transform="translate(54.380426, 95.466401)"><g><path d="M 9.5625 0.3125 C 6.5625 0.3125 4.410156 -0.507812 3.109375 -2.15625 C 1.804688 -3.800781 1.15625 -6.257812 1.15625 -9.53125 L 1.15625 -21.25 C 1.15625 -23.9375 1.925781 -25.984375 3.46875 -27.390625 C 5.007812 -28.796875 7.160156 -29.5 9.921875 -29.5 C 15.535156 -29.5 18.34375 -26.75 18.34375 -21.25 L 18.34375 -19.140625 C 18.34375 -17.015625 18.316406 -15.285156 18.265625 -13.953125 L 8.140625 -13.953125 L 8.140625 -8.296875 C 8.140625 -7.285156 8.242188 -6.492188 8.453125 -5.921875 C 8.660156 -5.347656 9.113281 -5.0625 9.8125 -5.0625 C 10.34375 -5.0625 10.71875 -5.21875 10.9375 -5.53125 C 11.164062 -5.851562 11.300781 -6.21875 11.34375 -6.625 C 11.382812 -7.039062 11.40625 -7.648438 11.40625 -8.453125 L 11.40625 -11.28125 L 18.34375 -11.28125 L 18.34375 -9.609375 C 18.34375 -6.203125 17.679688 -3.695312 16.359375 -2.09375 C 15.046875 -0.488281 12.78125 0.3125 9.5625 0.3125 Z M 11.40625 -17.421875 L 11.40625 -21.171875 C 11.40625 -23.273438 10.882812 -24.328125 9.84375 -24.328125 C 8.675781 -24.328125 8.09375 -23.273438 8.09375 -21.171875 L 8.09375 -17.421875 Z M 11.40625 -17.421875 "/></g></g></g><g fill="#d9d9d9" fill-opacity="1"><g transform="translate(73.837868, 95.466401)"><g><path d="M 1.390625 -29.1875 L 8.375 -29.1875 L 8.375 -25.953125 C 8.71875 -27.097656 9.320312 -27.984375 10.1875 -28.609375 C 11.050781 -29.234375 12.117188 -29.546875 13.390625 -29.546875 L 13.390625 -23.71875 C 12.410156 -23.71875 11.328125 -23.578125 10.140625 -23.296875 C 8.960938 -23.023438 8.375 -22.703125 8.375 -22.328125 L 8.375 0 L 1.390625 0 Z M 1.390625 -29.1875 "/></g></g></g><g fill="#d9d9d9" fill-opacity="1"><g transform="translate(87.553775, 95.466401)"><g><path d="M 7.140625 0.3125 C 5.429688 0.3125 4.144531 -0.0859375 3.28125 -0.890625 C 2.425781 -1.703125 1.859375 -2.78125 1.578125 -4.125 C 1.296875 -5.46875 1.15625 -7.191406 1.15625 -9.296875 L 1.234375 -22.453125 C 1.234375 -24.523438 1.757812 -26.21875 2.8125 -27.53125 C 3.863281 -28.84375 5.34375 -29.5 7.25 -29.5 C 9.144531 -29.5 10.554688 -28.878906 11.484375 -27.640625 L 11.484375 -34.453125 L 18.46875 -34.453125 L 18.46875 0 L 11.484375 0 L 11.484375 -3.109375 C 11.085938 -1.960938 10.550781 -1.101562 9.875 -0.53125 C 9.195312 0.03125 8.285156 0.3125 7.140625 0.3125 Z M 9.8125 -5.140625 C 10.5 -5.140625 10.945312 -5.476562 11.15625 -6.15625 C 11.375 -6.832031 11.484375 -7.742188 11.484375 -8.890625 L 11.484375 -21.09375 C 11.484375 -21.945312 11.363281 -22.664062 11.125 -23.25 C 10.882812 -23.832031 10.457031 -24.125 9.84375 -24.125 C 9.15625 -24.125 8.695312 -23.847656 8.46875 -23.296875 C 8.25 -22.753906 8.140625 -22.019531 8.140625 -21.09375 L 8.140625 -8.8125 C 8.140625 -6.363281 8.695312 -5.140625 9.8125 -5.140625 Z M 9.8125 -5.140625 "/></g></g></g><g fill="#d9d9d9" fill-opacity="1"><g transform="translate(107.409935, 95.466401)"><g><path d="M 0.84375 0.4375 L 4.1875 0.4375 C 4.664062 0.4375 4.90625 0.238281 4.90625 -0.15625 C 4.90625 -0.34375 4.890625 -0.488281 4.859375 -0.59375 L 0.3125 -29.1875 L 6.984375 -29.1875 L 8.296875 -14.953125 L 8.9375 -7.703125 L 9.6875 -14.953125 L 11.25 -29.1875 L 17.9375 -29.1875 L 12.515625 1.515625 C 12.328125 2.660156 11.945312 3.503906 11.375 4.046875 C 10.8125 4.585938 9.914062 4.859375 8.6875 4.859375 L 0.84375 4.859375 Z M 0.84375 0.4375 "/></g></g></g><g fill="#d9d9d9" fill-opacity="1"><g transform="translate(56.895977, 132.940621)"><g><path d="M 1.515625 -34.25 L 10.8125 -34.25 C 13.300781 -34.25 15.109375 -33.632812 16.234375 -32.40625 C 17.367188 -31.1875 17.9375 -29.195312 17.9375 -26.4375 L 17.9375 -24.921875 C 17.9375 -21.648438 16.769531 -19.695312 14.4375 -19.0625 C 15.875 -18.6875 16.882812 -17.820312 17.46875 -16.46875 C 18.050781 -15.113281 18.34375 -13.316406 18.34375 -11.078125 C 18.34375 -7.441406 17.796875 -4.6875 16.703125 -2.8125 C 15.617188 -0.9375 13.65625 0 10.8125 0 L 1.515625 0 Z M 9.609375 -21.375 C 10.191406 -21.375 10.585938 -21.59375 10.796875 -22.03125 C 11.015625 -22.46875 11.125 -23.085938 11.125 -23.890625 L 11.125 -27.3125 C 11.125 -28.425781 10.632812 -28.984375 9.65625 -28.984375 L 8.21875 -28.984375 L 8.21875 -21.375 Z M 8.890625 -6.015625 C 10.671875 -6.015625 11.5625 -6.867188 11.5625 -8.578125 L 11.5625 -12.84375 C 11.5625 -13.875 11.40625 -14.65625 11.09375 -15.1875 C 10.789062 -15.71875 10.253906 -15.984375 9.484375 -15.984375 L 8.21875 -15.984375 L 8.21875 -6.0625 Z M 8.890625 -6.015625 "/></g></g></g><g fill="#d9d9d9" fill-opacity="1"><g transform="translate(75.994574, 132.940621)"><g><path d="M 1.390625 0 L 1.390625 -34.453125 L 8.5 -34.453125 L 8.5 0 Z M 1.390625 0 "/></g></g></g><g fill="#d9d9d9" fill-opacity="1"><g transform="translate(85.882787, 132.940621)"><g><path d="M 9.890625 0.3125 C 4.066406 0.3125 1.15625 -2.703125 1.15625 -8.734375 L 1.15625 -20.453125 C 1.15625 -23.222656 1.929688 -25.421875 3.484375 -27.046875 C 5.046875 -28.679688 7.179688 -29.5 9.890625 -29.5 C 12.597656 -29.5 14.726562 -28.679688 16.28125 -27.046875 C 17.84375 -25.421875 18.625 -23.222656 18.625 -20.453125 L 18.625 -8.734375 C 18.625 -2.703125 15.710938 0.3125 9.890625 0.3125 Z M 9.890625 -5.0625 C 10.441406 -5.0625 10.851562 -5.257812 11.125 -5.65625 C 11.394531 -6.0625 11.53125 -6.609375 11.53125 -7.296875 L 11.53125 -21.578125 C 11.53125 -23.273438 10.984375 -24.125 9.890625 -24.125 C 8.796875 -24.125 8.25 -23.273438 8.25 -21.578125 L 8.25 -7.296875 C 8.25 -6.609375 8.378906 -6.0625 8.640625 -5.65625 C 8.910156 -5.257812 9.328125 -5.0625 9.890625 -5.0625 Z M 9.890625 -5.0625 "/></g></g></g><g fill="#d9d9d9" fill-opacity="1"><g transform="translate(105.699074, 132.940621)"><g><path d="M 9.25 4.265625 C 7.175781 4.265625 5.546875 4.097656 4.359375 3.765625 C 3.179688 3.429688 2.019531 2.800781 0.875 1.875 L 3.265625 -2.15625 C 4.972656 -1.144531 6.660156 -0.640625 8.328125 -0.640625 C 9.421875 -0.640625 10.242188 -0.984375 10.796875 -1.671875 C 11.359375 -2.367188 11.640625 -3.3125 11.640625 -4.5 L 11.640625 -6.09375 C 11.085938 -4.101562 9.613281 -3.109375 7.21875 -3.109375 C 5.226562 -3.109375 3.757812 -3.785156 2.8125 -5.140625 C 1.863281 -6.492188 1.390625 -8.300781 1.390625 -10.5625 L 1.390625 -21.53125 C 1.390625 -24.113281 1.820312 -26.085938 2.6875 -27.453125 C 3.550781 -28.816406 5.0625 -29.5 7.21875 -29.5 C 8.46875 -29.5 9.457031 -29.1875 10.1875 -28.5625 C 10.914062 -27.945312 11.398438 -27.066406 11.640625 -25.921875 L 11.640625 -29.1875 L 18.78125 -29.1875 L 18.78125 -4.9375 C 18.78125 -1.675781 18.019531 0.671875 16.5 2.109375 C 14.988281 3.546875 12.570312 4.265625 9.25 4.265625 Z M 10.015625 -8.375 C 11.097656 -8.375 11.640625 -9.359375 11.640625 -11.328125 L 11.640625 -21.734375 C 11.640625 -22.316406 11.476562 -22.875 11.15625 -23.40625 C 10.84375 -23.9375 10.445312 -24.203125 9.96875 -24.203125 C 9.351562 -24.203125 8.9375 -23.984375 8.71875 -23.546875 C 8.507812 -23.109375 8.40625 -22.503906 8.40625 -21.734375 L 8.40625 -11.328125 C 8.40625 -10.453125 8.507812 -9.738281 8.71875 -9.1875 C 8.9375 -8.644531 9.367188 -8.375 10.015625 -8.375 Z M 10.015625 -8.375 "/></g></g></g></svg>